<?xml version="1.0" encoding="UTF-8"?>
<svg width="21px" height="31px" viewBox="0 0 21 31" version="1.1" xmlns="http://www.w3.org/2000/svg" xmlns:xlink="http://www.w3.org/1999/xlink">
    <title>Coffee_Icon</title>
    <g id="Booksmart" stroke="none" stroke-width="1" fill="none" fill-rule="evenodd">
        <g id="Bookmark-Menu" transform="translate(-491.000000, -551.000000)" fill-rule="nonzero">
            <g id="Group-4" transform="translate(480.000000, 544.000000)">
                <g id="Coffee_Icon" transform="translate(11.000000, 7.000000)">
                    <path d="M7.5456,3.36 C7.93757939,4.57847807 9.07122475,5.40465001 10.3512,5.40465001 C11.6311753,5.40465001 12.7648206,4.57847807 13.1568,3.36 L18.3648,3.36 L18.3648,2.2608 C18.3648,1.46550996 17.72009,0.8208 16.9248,0.8208 L3.7728,0.8208 C2.97750996,0.8208 2.3328,1.46550996 2.3328,2.2608 L2.3328,3.36 L7.5456,3.36 Z" id="Path" fill="#30C469"></path>
                    <path d="M16.9296,0.8256 L11.1696,0.8256 L11.1696,5.28 C12.1113269,5.01246121 12.8570355,4.29196986 13.1568,3.36 L18.3648,3.36 L18.3648,2.2608 C18.3621659,1.46925458 17.7211454,0.828234116 16.9296,0.8256 L16.9296,0.8256 Z" id="Path" fill="#3D9A61"></path>
                    <path d="M2.3328,7.5888 C2.30767106,7.71364627 2.29480987,7.84065053 2.2944,7.968 L3.7344,28.1952 C3.71284388,29.1847562 4.49230579,30.0070457 5.4816,30.0384 L15.36,30.0384 C16.3492942,30.0070457 17.1287561,29.1847562 17.1072,28.1952 L18.4080077,7.968 C18.4083922,7.8403503 18.3938943,7.71309048 18.3648,7.5888 L2.3328,7.5888 Z" id="Path" fill="#E5E5E5"></path>
                    <path d="M11.1696,7.5888 L11.1696,30.0384 L15.36,30.0384 C16.3492942,30.0070457 17.1287561,29.1847562 17.1072,28.1952 L18.4080077,7.968 C18.4083922,7.8403503 18.3938943,7.71309048 18.3648,7.5888 L11.1696,7.5888 Z" id="Path" fill="#D1D1D1"></path>
                    <path d="M18.9072,3.35999999 L13.1472,3.35999999 C12.7505819,4.57094847 11.6206457,5.38986298 10.3464,5.38986298 C9.07215431,5.38986298 7.94221806,4.57094847 7.5456,3.35999999 L1.7856,3.35999999 C1.1944344,3.35999999 0.7152,3.8392344 0.7152,4.4304 L0.7152,6.5376 C0.7152,7.1287656 1.1944344,7.608 1.7856,7.608 L18.9072,7.608 C19.4983656,7.608 19.9776,7.1287656 19.9776,6.5376 L19.9776,4.4112 C19.9671292,3.82754592 19.490948,3.35990608 18.9072,3.35999999 Z" id="Path" fill="#30C469"></path>
                    <path d="M18.9072,3.35999999 L13.1472,3.35999999 C12.8474355,4.29196986 12.1017269,5.01246121 11.16,5.28 L11.16,7.608 L18.9072,7.608 C19.4983656,7.608 19.9776,7.1287656 19.9776,6.5376 L19.9776,4.4112 C19.9671292,3.82754592 19.490948,3.35990608 18.9072,3.35999999 Z" id="Path" fill="#3D9A61"></path>
                    <polygon id="Path" fill="#30C469" points="3.2304 21.576 17.52 21.576 18.0096 13.9248 2.6928 13.9248"></polygon>
                    <polygon id="Path" fill="#3D9A61" points="10.3488 21.576 17.52 21.576 18.0096 13.9248 10.3488 13.9248"></polygon>
                    <circle id="Oval" fill="#30C469" cx="10.3488" cy="17.7504" r="3.8256"></circle>
                    <path d="M11.1696,14.0112 L11.1696,21.4896 C12.9068185,21.0835143 14.1355386,19.5344498 14.1355386,17.7504 C14.1355386,15.9663502 12.9068185,14.4172857 11.1696,14.0112 L11.1696,14.0112 Z" id="Path" fill="#3D9A61"></path>
                    <path d="M19.0848,2.64 L19.0848,2.2608 C19.0821603,1.07161103 18.118789,0.108239719 16.9296,0.1056 L3.7728,0.1056 C2.58251591,0.1056 1.6176,1.07051591 1.6176,2.2608 L1.6176,2.64 C0.703074921,2.72642131 0.00333378997,3.4926067 0,4.4112 L0,6.5184 C0.00206362354,7.42869738 0.688577784,8.19172065 1.5936,8.2896 L1.92,13.2048 L1.92,13.2048 L2.5584,22.296 L2.5584,22.296 L2.9712,28.2192 C2.96298356,29.597014 4.06091953,30.7269909 5.4384,30.7584 L15.36,30.7584 C16.7333005,30.734775 17.8326556,29.6118928 17.8272,28.2384 L19.104,8.2896 C20.0090222,8.19172065 20.6955364,7.42869738 20.6976,6.5184 L20.6976,4.4112 C20.6945086,3.49427644 19.9974256,2.72872983 19.0848,2.64 Z M3.0576,2.2608 C3.0576,1.86580595 3.37780595,1.5456 3.7728,1.5456 L16.9296,1.5456 C17.1192828,1.5456 17.3011968,1.62095121 17.4353228,1.75507723 C17.5694488,1.88920325 17.6448,2.07111717 17.6448,2.2608 L17.6448,2.6208 L12.6336,2.6208 L12.48,3.12 C12.1851703,4.04303473 11.3273776,4.66953247 10.3584,4.66953247 C9.38942236,4.66953247 8.53162969,4.04303473 8.2368,3.12 L8.0784,2.64 L3.0576,2.64 L3.0576,2.2608 Z M3.0576,8.3088 L17.664,8.3088 L17.352,13.2048 L3.384,13.2048 L3.0576,8.3088 Z M13.68,14.6448 L17.2608,14.6448 L16.8624,20.856 L13.6608,20.856 C15.3126241,19.1150681 15.3126241,16.3857319 13.6608,14.6448 L13.68,14.6448 Z M13.4400037,17.76 C13.4419421,19.0184744 12.68535,20.1541114 11.5232283,20.637055 C10.3611065,21.1199985 9.0224815,20.855072 8.13191779,19.9658826 C7.24135409,19.0766933 6.97436052,17.738479 7.45550874,16.5756128 C7.93665696,15.4127465 9.07112415,14.6544 10.3296,14.6544 C12.0455537,14.6544 13.4373519,16.0440483 13.4400037,17.76 Z M7.0416,20.856 L3.9168,20.856 L3.4848,14.6448 L7.0416,14.6448 C5.38977591,16.3857319 5.38977591,19.1150681 7.0416,20.856 L7.0416,20.856 Z M15.36,29.3184 L5.4576,29.3184 C4.86472337,29.2898843 4.40597215,28.7882591 4.4304,28.1952 L4.0176,22.296 L16.7712,22.296 L16.3968,28.1952 C16.4084894,28.4816948 16.305771,28.7610787 16.1112856,28.9717713 C15.9168001,29.1824638 15.6465132,29.307169 15.36,29.3184 L15.36,29.3184 Z M19.248,6.5184 C19.248,6.71192058 19.0911206,6.8688 18.8976,6.8688 L1.7952,6.8688 C1.60167942,6.8688 1.4448,6.71192058 1.4448,6.5184 L1.4448,4.4112 C1.4448,4.31826814 1.48171704,4.22914253 1.54742978,4.16342978 C1.61314253,4.09771704 1.70226814,4.0608 1.7952,4.0608 L7.0752,4.0608 C7.69476952,5.31150554 8.96984546,6.10281477 10.3656,6.10281477 C11.7613545,6.10281477 13.0364305,5.31150554 13.656,4.0608 L18.936,4.0608 C19.1295206,4.0608 19.2864,4.21767942 19.2864,4.4112 L19.248,6.5184 Z" id="Shape" fill="#191818"></path>
                </g>
            </g>
        </g>
    </g>
</svg>